<svg width="137" height="131" viewBox="0 0 137 131" fill="none" xmlns="http://www.w3.org/2000/svg">
<path d="M63.6352 63.8074C64.0761 72.4628 64.517 81.1183 64.9579 89.7737C71.9623 89.1974 79.0246 88.3241 86.1435 86.9354C96.6003 84.8216 107.324 81.9192 117.774 75.5268C127.624 69.7903 140.22 55.8731 135.173 38.9243L134.967 38.2818C125.612 10.069 92.2093 -4.48064 65.6111 2.00107L65.8111 1.96369C33.1078 8.42755 -5.21897 35.7986 1.47941 74.2034L1.45792 73.9503C4.63028 106.203 34.2836 130.023 64.0812 130.762L64.1597 130.769C78.7318 131.085 93.3211 129.856 107.308 125.942C113.692 124.054 120.117 121.526 125.146 117.127C125.146 117.127 125.146 117.127 125.146 117.127C119.846 121.18 113.384 123.233 106.985 124.682C93.0176 127.633 78.4993 127.894 64.4334 126.665L64.5119 126.671C36.0087 124.01 12.0882 100.21 11.2316 73.3753L11.2101 73.1222C7.67409 41.8824 39.9607 21.9433 68.5771 17.868L68.7771 17.8307C89.3169 14.8392 110.257 25.8783 115.325 45.2969L115.118 44.6544C117.795 51.2686 99.5232 61.1953 82.1299 62.5637C76.1059 63.3346 69.8969 63.7042 63.6352 63.8074Z" fill="#047014"/>
<path d="M25.9241 76.5793L69.6851 52.8128L70.9043 97.9488L25.9241 76.5793Z" fill="#047014"/>
</svg>
