<svg width="203" height="41" viewBox="0 0 203 41" fill="none" xmlns="http://www.w3.org/2000/svg">
<path d="M33.2709 30.966C32.4736 30.966 31.8066 30.7053 31.2699 30.184C30.7486 29.678 30.3576 28.9113 30.0969 27.884C29.9896 27.4547 29.8976 26.9027 29.8209 26.228C29.7443 25.538 29.6676 24.7867 29.5909 23.974C29.5296 23.146 29.4759 22.3027 29.4299 21.444C29.3993 20.5853 29.3686 19.7497 29.3379 18.937C29.3226 18.1243 29.3149 17.396 29.3149 16.752C29.3149 14.5593 29.4453 12.6273 29.7059 10.956C29.9666 9.26933 30.3653 7.82033 30.9019 6.609C31.4539 5.38233 32.1669 4.38567 33.0409 3.619C33.9303 2.837 34.9959 2.262 36.2379 1.894C37.4953 1.51067 38.9596 1.319 40.6309 1.319C42.2256 1.319 43.7436 1.49533 45.1849 1.848C46.6263 2.18533 47.8989 2.699 49.0029 3.389C50.1223 4.079 50.9963 4.93766 51.6249 5.965C52.2689 6.99233 52.5909 8.18067 52.5909 9.53C52.5909 10.8027 52.3073 11.8683 51.7399 12.727C51.1726 13.5857 50.4366 14.2833 49.5319 14.82C48.6273 15.3567 47.6536 15.7707 46.6109 16.062C45.5836 16.3533 44.6023 16.568 43.6669 16.706C43.1456 16.7827 42.7853 16.867 42.5859 16.959C42.3866 17.051 42.2869 17.189 42.2869 17.373C42.2869 17.4957 42.3789 17.6643 42.5629 17.879C42.7623 18.0937 43.0229 18.3543 43.3449 18.661C43.6823 18.9523 44.0656 19.2973 44.4949 19.696C44.9243 20.0793 45.3689 20.5087 45.8289 20.984C46.2736 21.4287 46.7873 21.95 47.3699 22.548C47.9679 23.146 48.5659 23.767 49.1639 24.411C49.7619 25.0397 50.3139 25.6453 50.8199 26.228C51.3413 26.7953 51.7629 27.286 52.0849 27.7C52.4069 28.114 52.5679 28.39 52.5679 28.528C52.5679 28.9573 52.4376 29.3177 52.1769 29.609C51.9163 29.9003 51.5866 30.115 51.1879 30.253C50.7893 30.4063 50.3523 30.483 49.8769 30.483C49.3863 30.483 48.8419 30.3373 48.2439 30.046C47.6613 29.7547 47.0403 29.3483 46.3809 28.827C45.7369 28.3057 45.0776 27.7 44.4029 27.01C43.7283 26.32 43.0536 25.5687 42.3789 24.756C41.3669 23.6213 40.4546 22.6323 39.6419 21.789C38.8293 20.9457 38.1469 20.2863 37.5949 19.811C37.0429 19.3357 36.6596 19.098 36.4449 19.098C36.2916 19.098 36.1689 19.167 36.0769 19.305C36.0003 19.4277 35.9389 19.6577 35.8929 19.995C35.8623 20.317 35.8393 20.7617 35.8239 21.329C35.8239 21.8963 35.8239 22.617 35.8239 23.491C35.8239 23.7517 35.8239 24.0813 35.8239 24.48C35.8393 24.8787 35.8469 25.3003 35.8469 25.745C35.8623 26.1897 35.8699 26.619 35.8699 27.033C35.8699 27.447 35.8699 27.815 35.8699 28.137C35.8699 28.459 35.8623 28.689 35.8469 28.827C35.7243 29.609 35.4253 30.161 34.9499 30.483C34.4899 30.805 33.9303 30.966 33.2709 30.966ZM38.3539 14.82C38.8753 14.82 39.5116 14.774 40.2629 14.682C41.0296 14.5747 41.8193 14.3983 42.6319 14.153C43.4446 13.9077 44.2036 13.5857 44.9089 13.187C45.6296 12.773 46.2123 12.2593 46.6569 11.646C47.1016 11.0327 47.3239 10.312 47.3239 9.484C47.3239 8.62533 47.1169 7.897 46.7029 7.299C46.3043 6.701 45.7599 6.22567 45.0699 5.873C44.3953 5.505 43.6439 5.23666 42.8159 5.068C41.9879 4.89933 41.1523 4.815 40.3089 4.815C39.4349 4.815 38.6989 4.93767 38.1009 5.183C37.5183 5.42833 37.0429 5.79633 36.6749 6.287C36.3223 6.77767 36.0616 7.42167 35.8929 8.219C35.7856 8.66367 35.7013 9.10833 35.6399 9.553C35.5939 9.99767 35.5556 10.4423 35.5249 10.887C35.4943 11.3163 35.4789 11.738 35.4789 12.152C35.4789 12.8267 35.5479 13.3633 35.6859 13.762C35.8393 14.1453 36.1229 14.4213 36.5369 14.59C36.9509 14.7433 37.5566 14.82 38.3539 14.82ZM68.4962 31.587C65.9202 31.587 63.6892 31.196 61.8032 30.414C59.9172 29.632 58.4605 28.4283 57.4332 26.803C56.4058 25.1623 55.8922 23.077 55.8922 20.547C55.8922 18.4463 56.2372 16.614 56.9272 15.05C57.6325 13.4707 58.5985 12.152 59.8252 11.094C61.0518 10.036 62.4702 9.24633 64.0802 8.725C65.6902 8.18833 67.4075 7.92 69.2322 7.92C70.4742 7.92 71.6472 8.05033 72.7512 8.311C73.8705 8.57167 74.8595 8.978 75.7182 9.53C76.5922 10.0667 77.2745 10.7567 77.7652 11.6C78.2558 12.4433 78.5012 13.4477 78.5012 14.613C78.5012 15.855 78.2405 16.867 77.7192 17.649C77.1978 18.4157 76.4848 19.0213 75.5802 19.466C74.6755 19.8953 73.6482 20.2173 72.4982 20.432C71.3635 20.6313 70.1752 20.7847 68.9332 20.892C68.3045 20.9993 67.5608 21.0913 66.7022 21.168C65.8435 21.2293 65.0078 21.283 64.1952 21.329C63.3978 21.3597 62.7768 21.375 62.3322 21.375C61.8722 21.375 61.5578 21.4363 61.3892 21.559C61.2205 21.6817 61.1362 21.904 61.1362 22.226C61.1362 22.6093 61.2435 23.0617 61.4582 23.583C61.6728 24.089 61.9795 24.5873 62.3782 25.078C63.1142 25.9827 63.9652 26.5883 64.9312 26.895C65.9125 27.1863 67.1162 27.332 68.5422 27.332C69.7842 27.332 70.9188 27.1863 71.9462 26.895C72.9735 26.5883 73.8935 26.2893 74.7062 25.998C75.5342 25.6913 76.2778 25.538 76.9372 25.538C77.5352 25.538 78.0028 25.653 78.3402 25.883C78.6928 26.0977 78.8692 26.527 78.8692 27.171C78.8692 27.7537 78.6008 28.3133 78.0642 28.85C77.5428 29.3867 76.8145 29.8543 75.8792 30.253C74.9438 30.667 73.8475 30.989 72.5902 31.219C71.3328 31.4643 69.9682 31.587 68.4962 31.587ZM66.6792 18.799C67.9212 18.799 69.0788 18.684 70.1522 18.454C71.2255 18.2087 72.0918 17.8023 72.7512 17.235C73.4258 16.6523 73.7632 15.855 73.7632 14.843C73.7632 13.647 73.3262 12.75 72.4522 12.152C71.5782 11.5387 70.3515 11.232 68.7722 11.232C67.8368 11.232 66.9245 11.4007 66.0352 11.738C65.1458 12.06 64.3562 12.5123 63.6662 13.095C62.9762 13.6777 62.4242 14.337 62.0102 15.073C61.5962 15.809 61.3892 16.5987 61.3892 17.442C61.3892 17.8713 61.5578 18.1857 61.8952 18.385C62.2478 18.569 62.8075 18.684 63.5742 18.73C64.3562 18.776 65.3912 18.799 66.6792 18.799Z" fill="#E3C500"/>
<path d="M86.8153 31.104C86.1866 31.104 85.6653 30.9047 85.2513 30.506C84.8526 30.1227 84.5153 29.5783 84.2393 28.873C84.1013 28.505 83.971 27.8993 83.8483 27.056C83.7256 26.1973 83.6106 25.2007 83.5033 24.066C83.396 22.9313 83.2963 21.7507 83.2043 20.524C83.1276 19.282 83.0586 18.0707 82.9973 16.89C82.936 15.7093 82.89 14.6513 82.8593 13.716C82.8286 12.7653 82.8133 12.037 82.8133 11.531C82.8133 9.737 82.9283 8.219 83.1583 6.977C83.4036 5.71967 83.8406 4.76133 84.4693 4.102C85.098 3.42733 86.0103 3.09 87.2063 3.09C88.0343 3.09 88.8546 3.42733 89.6673 4.102C90.48 4.76133 91.4306 5.81167 92.5193 7.253C93.608 8.69433 94.9573 10.5727 96.5673 12.888C98.714 16.0467 100.439 18.3927 101.742 19.926C103.046 21.444 103.981 22.203 104.548 22.203C104.824 22.203 105.047 22.134 105.215 21.996C105.399 21.858 105.537 21.582 105.629 21.168C105.737 20.7387 105.806 20.0947 105.836 19.236C105.867 18.868 105.882 18.3083 105.882 17.557C105.882 16.8057 105.875 15.9623 105.859 15.027C105.859 14.0763 105.852 13.1027 105.836 12.106C105.821 11.1093 105.813 10.1663 105.813 9.277C105.813 8.38767 105.813 7.62867 105.813 7C105.829 6.37133 105.852 5.94967 105.882 5.735C106.066 4.815 106.365 4.17867 106.779 3.826C107.193 3.47333 107.768 3.297 108.504 3.297C109.056 3.297 109.516 3.39667 109.884 3.596C110.268 3.78 110.574 4.06367 110.804 4.447C111.05 4.815 111.226 5.298 111.333 5.896C111.456 6.47867 111.533 7.16867 111.563 7.966C111.579 8.426 111.594 9.093 111.609 9.967C111.625 10.841 111.64 11.8377 111.655 12.957C111.671 14.061 111.671 15.211 111.655 16.407C111.655 17.603 111.64 18.7683 111.609 19.903C111.594 21.0223 111.563 22.042 111.517 22.962C111.471 23.882 111.402 24.618 111.31 25.17C111.126 26.3507 110.843 27.3397 110.459 28.137C110.091 28.919 109.593 29.5093 108.964 29.908C108.351 30.2913 107.561 30.483 106.595 30.483C105.721 30.483 104.763 30.046 103.72 29.172C102.678 28.2827 101.551 27.0637 100.339 25.515C99.1433 23.951 97.863 22.1877 96.4983 20.225C95.6243 18.9677 94.8116 17.81 94.0603 16.752C93.309 15.6787 92.642 14.751 92.0593 13.969C91.492 13.1717 91.009 12.5583 90.6103 12.129C90.2116 11.6843 89.9126 11.462 89.7133 11.462C89.3606 11.462 89.1153 11.669 88.9773 12.083C88.8393 12.4817 88.7703 13.2943 88.7703 14.521C88.7703 15.2263 88.7856 16.0083 88.8163 16.867C88.847 17.7103 88.8853 18.5843 88.9313 19.489C88.9773 20.3937 89.031 21.306 89.0923 22.226C89.1536 23.1307 89.1996 24.0123 89.2303 24.871C89.261 25.7143 89.2763 26.4963 89.2763 27.217C89.2916 27.9377 89.2763 28.5587 89.2303 29.08C89.0616 29.862 88.778 30.391 88.3793 30.667C87.9806 30.9583 87.4593 31.104 86.8153 31.104ZM128.48 31.219C126.701 31.219 124.984 31.0197 123.328 30.621C121.687 30.2223 120.215 29.586 118.912 28.712C117.624 27.838 116.604 26.7033 115.853 25.308C115.101 23.8973 114.726 22.18 114.726 20.156C114.726 17.9327 115.086 15.993 115.807 14.337C116.543 12.6657 117.555 11.278 118.843 10.174C120.131 9.05467 121.618 8.219 123.305 7.667C125.007 7.09967 126.824 6.816 128.756 6.816C130.504 6.816 132.213 7.03833 133.885 7.483C135.556 7.92767 137.059 8.62533 138.393 9.576C139.727 10.5267 140.785 11.761 141.567 13.279C142.364 14.7817 142.763 16.5987 142.763 18.73C142.763 20.34 142.433 21.8887 141.774 23.376C141.13 24.8633 140.187 26.1973 138.945 27.378C137.718 28.5433 136.223 29.471 134.46 30.161C132.712 30.8663 130.718 31.219 128.48 31.219ZM128.273 26.136C129.837 26.136 131.163 25.8983 132.252 25.423C133.34 24.9323 134.222 24.296 134.897 23.514C135.587 22.7167 136.085 21.8503 136.392 20.915C136.714 19.9797 136.875 19.052 136.875 18.132C136.875 16.844 136.622 15.7553 136.116 14.866C135.625 13.9613 134.966 13.233 134.138 12.681C133.325 12.129 132.413 11.7303 131.401 11.485C130.389 11.2243 129.354 11.094 128.296 11.094C126.916 11.094 125.612 11.393 124.386 11.991C123.159 12.5737 122.162 13.463 121.396 14.659C120.644 15.8397 120.269 17.3347 120.269 19.144C120.269 20.616 120.568 21.881 121.166 22.939C121.779 23.9817 122.684 24.779 123.88 25.331C125.076 25.8677 126.54 26.136 128.273 26.136ZM159.572 31.656C158.806 31.656 157.955 31.3033 157.019 30.598C156.084 29.8927 155.126 28.9573 154.144 27.792C153.7 27.286 153.186 26.6113 152.603 25.768C152.036 24.9093 151.438 23.974 150.809 22.962C150.196 21.95 149.59 20.915 148.992 19.857C148.41 18.7837 147.873 17.7793 147.382 16.844C146.892 15.8933 146.493 15.0807 146.186 14.406C145.926 13.8387 145.719 13.325 145.565 12.865C145.427 12.405 145.358 11.991 145.358 11.623C145.358 11.1323 145.481 10.7183 145.726 10.381C145.987 10.0283 146.324 9.76 146.738 9.576C147.152 9.37667 147.597 9.277 148.072 9.277C148.793 9.277 149.414 9.46867 149.935 9.852C150.457 10.22 150.947 10.7873 151.407 11.554C151.576 11.8607 151.829 12.3667 152.166 13.072C152.519 13.762 152.918 14.567 153.362 15.487C153.822 16.3917 154.29 17.3423 154.765 18.339C155.256 19.3357 155.739 20.3093 156.214 21.26C156.69 22.1953 157.111 23.0233 157.479 23.744C157.878 24.48 158.246 25.0703 158.583 25.515C158.936 25.9597 159.22 26.182 159.434 26.182C159.68 26.182 159.971 25.9597 160.308 25.515C160.646 25.0703 160.998 24.4953 161.366 23.79C162.271 22.0267 163.183 20.064 164.103 17.902C165.039 15.7247 166.005 13.509 167.001 11.255C167.461 10.427 167.921 9.84433 168.381 9.507C168.841 9.15433 169.432 8.978 170.152 8.978C170.888 8.978 171.479 9.16967 171.923 9.553C172.368 9.921 172.59 10.473 172.59 11.209C172.59 11.6077 172.529 12.0447 172.406 12.52C172.299 12.9953 172.138 13.4937 171.923 14.015C171.678 14.705 171.348 15.533 170.934 16.499C170.52 17.4497 170.053 18.4693 169.531 19.558C169.025 20.6467 168.496 21.72 167.944 22.778C167.392 23.836 166.84 24.825 166.288 25.745C165.752 26.6497 165.253 27.401 164.793 27.999C163.904 29.0723 163.007 29.9463 162.102 30.621C161.213 31.311 160.37 31.656 159.572 31.656ZM185.487 32.231C184.245 32.231 183.064 32.1083 181.945 31.863C180.841 31.6177 179.86 31.2267 179.001 30.69C178.142 30.1533 177.468 29.4557 176.977 28.597C176.486 27.7383 176.241 26.688 176.241 25.446C176.241 24.0353 176.586 22.8777 177.276 21.973C177.966 21.0683 178.901 20.363 180.082 19.857C181.278 19.3357 182.62 18.9753 184.107 18.776C185.594 18.5767 187.135 18.477 188.73 18.477C189.221 18.477 189.719 18.4923 190.225 18.523C190.731 18.5537 191.206 18.5843 191.651 18.615C192.111 18.6457 192.487 18.661 192.778 18.661C193.177 18.661 193.445 18.5997 193.583 18.477C193.721 18.339 193.79 18.109 193.79 17.787C193.79 17.189 193.713 16.66 193.56 16.2C193.422 15.74 193.215 15.3337 192.939 14.981C192.663 14.6283 192.333 14.3293 191.95 14.084C191.337 13.67 190.593 13.3787 189.719 13.21C188.86 13.026 187.933 12.934 186.936 12.934C185.755 12.934 184.705 13.0567 183.785 13.302C182.88 13.5473 182.075 13.8003 181.37 14.061C180.665 14.3217 180.021 14.452 179.438 14.452C178.641 14.452 178.027 14.3217 177.598 14.061C177.169 13.8003 176.954 13.3787 176.954 12.796C176.954 12.198 177.207 11.646 177.713 11.14C178.219 10.634 178.917 10.1893 179.806 9.806C180.711 9.42267 181.753 9.12367 182.934 8.909C184.13 8.69433 185.403 8.587 186.752 8.587C189.466 8.587 191.735 8.932 193.56 9.622C195.4 10.2967 196.78 11.4007 197.7 12.934C198.62 14.452 199.08 16.499 199.08 19.075C199.08 19.8417 199.042 20.5087 198.965 21.076C198.888 21.6433 198.789 22.1417 198.666 22.571C198.559 22.985 198.467 23.3453 198.39 23.652C198.313 23.9587 198.275 24.2423 198.275 24.503C198.275 24.871 198.39 25.2237 198.62 25.561C198.865 25.883 199.149 26.205 199.471 26.527C199.808 26.849 200.1 27.194 200.345 27.562C200.59 27.9147 200.713 28.3133 200.713 28.758C200.713 29.4173 200.498 29.8927 200.069 30.184C199.64 30.4753 199.164 30.621 198.643 30.621C198.168 30.621 197.769 30.46 197.447 30.138C197.14 29.8313 196.857 29.5247 196.596 29.218C196.351 28.9113 196.044 28.758 195.676 28.758C195.461 28.758 195.224 28.8193 194.963 28.942C194.718 29.0647 194.411 29.2563 194.043 29.517C193.583 29.8543 192.993 30.23 192.272 30.644C191.567 31.0733 190.662 31.4413 189.558 31.748C188.454 32.07 187.097 32.231 185.487 32.231ZM186.108 28.712C187.059 28.712 187.979 28.5663 188.868 28.275C189.757 27.9683 190.555 27.5543 191.26 27.033C191.965 26.4963 192.525 25.8753 192.939 25.17C193.353 24.4493 193.56 23.675 193.56 22.847C193.56 22.3257 193.384 21.95 193.031 21.72C192.694 21.49 192.134 21.3443 191.352 21.283C190.57 21.2217 189.535 21.191 188.247 21.191C186.974 21.191 185.794 21.3213 184.705 21.582C183.616 21.8273 182.742 22.249 182.083 22.847C181.424 23.4297 181.094 24.227 181.094 25.239C181.094 26.021 181.293 26.665 181.692 27.171C182.091 27.677 182.666 28.0603 183.417 28.321C184.168 28.5817 185.065 28.712 186.108 28.712Z" fill="#22C28A"/>
<path d="M12.3982 18.5423C12.4661 19.8739 12.5339 21.2055 12.6017 22.5371C13.8034 22.4421 15.0141 22.2961 16.2323 22.0623C18.0213 21.7067 19.8527 21.2139 21.6198 20.138C23.2907 19.1692 25.3727 16.8532 24.5427 14.0592L24.5109 13.9604C22.9368 9.17435 17.2895 6.69655 12.7564 7.78236L12.7872 7.77661C7.18225 8.86965 0.625198 13.5232 1.75147 20.0832L1.74816 20.0442C2.27391 25.559 7.33718 29.6691 12.4669 29.8147L12.4789 29.8157C14.9887 29.8787 17.5055 29.6757 19.9188 29.0093C21.0207 28.6876 22.1298 28.2559 23 27.5C22.088 28.2026 20.9732 28.5614 19.8693 28.8156C17.4589 29.3337 14.953 29.3878 12.521 29.1843L12.5331 29.1853C7.60257 28.7441 3.42128 24.6369 3.2518 19.9558L3.24849 19.9169C2.60874 14.4592 8.23655 10.949 13.2127 10.2234L13.2435 10.2177C16.8445 9.66882 20.5745 11.6066 21.489 15.0396L21.4573 14.9408C21.9378 16.3735 18.6197 18.0467 15.6148 18.3128C14.5651 18.4516 13.4857 18.5201 12.3982 18.5423Z" fill="#0A7D24"/>
<path d="M5.87854 20.5033L13.4298 16.4022L13.6402 24.1907L5.87854 20.5033Z" fill="#0A7D24"/>
</svg>
